<mxfile host="app.diagrams.net" modified="2024-03-14T07:52:51.488Z" agent="Mozilla/5.0 (Windows NT 10.0; Win64; x64) AppleWebKit/537.36 (KHTML, like Gecko) Chrome/122.0.0.0 Safari/537.36" etag="HrEcY-BbgT94W0aHxES0" version="24.0.2" type="github">
  <diagram name="페이지-1" id="Lf5ShrxYZs6vrPWNROka">
    <mxGraphModel dx="2261" dy="780" grid="1" gridSize="10" guides="1" tooltips="1" connect="1" arrows="1" fold="1" page="1" pageScale="1" pageWidth="827" pageHeight="1169" math="0" shadow="0">
      <root>
        <mxCell id="0" />
        <mxCell id="1" parent="0" />
        <mxCell id="boVoHQPEQ6CeYj3S7dCK-2" value="프로젝트명" style="rounded=0;whiteSpace=wrap;html=1;fillColor=#647687;fontColor=#ffffff;strokeColor=#314354;fontSize=25;" parent="1" vertex="1">
          <mxGeometry x="520" width="120" height="60" as="geometry" />
        </mxCell>
        <mxCell id="boVoHQPEQ6CeYj3S7dCK-3" value="메인메뉴 이름" style="rounded=0;whiteSpace=wrap;html=1;fillColor=#0050ef;fontColor=#ffffff;strokeColor=#001DBC;fontSize=25;" parent="1" vertex="1">
          <mxGeometry x="520" y="60" width="120" height="60" as="geometry" />
        </mxCell>
        <mxCell id="boVoHQPEQ6CeYj3S7dCK-4" value="서브메뉴 이름" style="rounded=0;whiteSpace=wrap;html=1;fillColor=#1ba1e2;fontColor=#ffffff;strokeColor=#006EAF;fontSize=25;" parent="1" vertex="1">
          <mxGeometry x="520" y="120" width="120" height="60" as="geometry" />
        </mxCell>
        <mxCell id="boVoHQPEQ6CeYj3S7dCK-5" value="서브메뉴 내 메뉴 이름" style="rounded=0;whiteSpace=wrap;html=1;fontSize=25;" parent="1" vertex="1">
          <mxGeometry x="520" y="180" width="120" height="60" as="geometry" />
        </mxCell>
        <mxCell id="boVoHQPEQ6CeYj3S7dCK-6" value="Game Event Tracker" style="rounded=0;whiteSpace=wrap;html=1;fillColor=#647687;fontColor=#ffffff;strokeColor=#314354;fontSize=25;" parent="1" vertex="1">
          <mxGeometry x="-10" y="90" width="210" height="130" as="geometry" />
        </mxCell>
        <mxCell id="boVoHQPEQ6CeYj3S7dCK-7" value="" style="endArrow=none;html=1;rounded=0;fontSize=25;" parent="1" edge="1">
          <mxGeometry width="50" height="50" relative="1" as="geometry">
            <mxPoint x="99.5" y="310" as="sourcePoint" />
            <mxPoint x="100.5" y="220" as="targetPoint" />
          </mxGeometry>
        </mxCell>
        <mxCell id="boVoHQPEQ6CeYj3S7dCK-8" value="" style="endArrow=none;html=1;rounded=0;fontSize=25;" parent="1" edge="1">
          <mxGeometry width="50" height="50" relative="1" as="geometry">
            <mxPoint x="-300" y="310" as="sourcePoint" />
            <mxPoint x="500" y="310" as="targetPoint" />
          </mxGeometry>
        </mxCell>
        <mxCell id="boVoHQPEQ6CeYj3S7dCK-9" value="" style="endArrow=none;html=1;rounded=0;exitX=0.5;exitY=0;exitDx=0;exitDy=0;fontSize=25;" parent="1" source="boVoHQPEQ6CeYj3S7dCK-13" edge="1">
          <mxGeometry width="50" height="50" relative="1" as="geometry">
            <mxPoint x="105" y="360" as="sourcePoint" />
            <mxPoint x="100" y="310" as="targetPoint" />
          </mxGeometry>
        </mxCell>
        <mxCell id="boVoHQPEQ6CeYj3S7dCK-10" value="대시보드" style="rounded=0;whiteSpace=wrap;html=1;fillColor=#0050ef;fontColor=#ffffff;strokeColor=#001DBC;fontSize=25;" parent="1" vertex="1">
          <mxGeometry x="-160" y="360" width="120" height="60" as="geometry" />
        </mxCell>
        <mxCell id="boVoHQPEQ6CeYj3S7dCK-13" value="팀 구독&amp;nbsp;&lt;div&gt;서비스&lt;/div&gt;" style="rounded=0;whiteSpace=wrap;html=1;fillColor=#0050ef;fontColor=#ffffff;strokeColor=#001DBC;fontSize=25;" parent="1" vertex="1">
          <mxGeometry x="40" y="360" width="120" height="60" as="geometry" />
        </mxCell>
        <mxCell id="boVoHQPEQ6CeYj3S7dCK-14" value="클랜 모집" style="rounded=0;whiteSpace=wrap;html=1;fillColor=#0050ef;fontColor=#ffffff;strokeColor=#001DBC;fontSize=25;" parent="1" vertex="1">
          <mxGeometry x="240" y="360" width="120" height="60" as="geometry" />
        </mxCell>
        <mxCell id="boVoHQPEQ6CeYj3S7dCK-15" value="설정" style="rounded=0;whiteSpace=wrap;html=1;fillColor=#0050ef;fontColor=#ffffff;strokeColor=#001DBC;fontSize=25;" parent="1" vertex="1">
          <mxGeometry x="450" y="360" width="120" height="60" as="geometry" />
        </mxCell>
        <mxCell id="boVoHQPEQ6CeYj3S7dCK-20" value="" style="endArrow=none;html=1;rounded=0;fontSize=25;" parent="1" edge="1">
          <mxGeometry width="50" height="50" relative="1" as="geometry">
            <mxPoint x="299.5" y="360" as="sourcePoint" />
            <mxPoint x="299.5" y="310" as="targetPoint" />
          </mxGeometry>
        </mxCell>
        <mxCell id="boVoHQPEQ6CeYj3S7dCK-21" value="" style="endArrow=none;html=1;rounded=0;fontSize=25;" parent="1" edge="1">
          <mxGeometry width="50" height="50" relative="1" as="geometry">
            <mxPoint x="499.5" y="360" as="sourcePoint" />
            <mxPoint x="499.5" y="310" as="targetPoint" />
          </mxGeometry>
        </mxCell>
        <mxCell id="boVoHQPEQ6CeYj3S7dCK-24" value="SNS 연결 서비스" style="rounded=0;whiteSpace=wrap;html=1;dashed=1;fontSize=25;" parent="1" vertex="1">
          <mxGeometry x="90" y="570" width="120" height="60" as="geometry" />
        </mxCell>
        <mxCell id="boVoHQPEQ6CeYj3S7dCK-25" value="구독 서비스" style="rounded=0;whiteSpace=wrap;html=1;dashed=1;fontSize=25;" parent="1" vertex="1">
          <mxGeometry x="90" y="510" width="120" height="60" as="geometry" />
        </mxCell>
        <mxCell id="boVoHQPEQ6CeYj3S7dCK-27" value="" style="endArrow=none;html=1;rounded=0;exitX=0.5;exitY=0;exitDx=0;exitDy=0;fontSize=25;" parent="1" edge="1">
          <mxGeometry width="50" height="50" relative="1" as="geometry">
            <mxPoint x="-100.5" y="360" as="sourcePoint" />
            <mxPoint x="-100.5" y="310" as="targetPoint" />
          </mxGeometry>
        </mxCell>
        <mxCell id="boVoHQPEQ6CeYj3S7dCK-28" value="팀 관련정보" style="rounded=0;whiteSpace=wrap;html=1;fillColor=#1ba1e2;fontColor=#ffffff;strokeColor=#006EAF;fontSize=25;" parent="1" vertex="1">
          <mxGeometry x="40" y="450" width="120" height="60" as="geometry" />
        </mxCell>
        <mxCell id="boVoHQPEQ6CeYj3S7dCK-29" value="" style="endArrow=none;html=1;rounded=0;exitX=0.5;exitY=0;exitDx=0;exitDy=0;entryX=0.5;entryY=1;entryDx=0;entryDy=0;fontSize=25;" parent="1" source="boVoHQPEQ6CeYj3S7dCK-28" target="boVoHQPEQ6CeYj3S7dCK-13" edge="1">
          <mxGeometry width="50" height="50" relative="1" as="geometry">
            <mxPoint x="80" y="450" as="sourcePoint" />
            <mxPoint x="110" y="420" as="targetPoint" />
          </mxGeometry>
        </mxCell>
        <mxCell id="boVoHQPEQ6CeYj3S7dCK-30" value="클랜원 모집(글 작성)" style="rounded=0;whiteSpace=wrap;html=1;fillColor=#1ba1e2;fontColor=#ffffff;strokeColor=#006EAF;fontSize=25;" parent="1" vertex="1">
          <mxGeometry x="240" y="450" width="120" height="60" as="geometry" />
        </mxCell>
        <mxCell id="boVoHQPEQ6CeYj3S7dCK-31" value="모집 정보" style="rounded=0;whiteSpace=wrap;html=1;dashed=1;fontSize=25;" parent="1" vertex="1">
          <mxGeometry x="294" y="510" width="120" height="60" as="geometry" />
        </mxCell>
        <mxCell id="boVoHQPEQ6CeYj3S7dCK-32" value="댓글창" style="rounded=0;whiteSpace=wrap;html=1;dashed=1;fontSize=25;" parent="1" vertex="1">
          <mxGeometry x="294" y="570" width="120" height="60" as="geometry" />
        </mxCell>
        <mxCell id="boVoHQPEQ6CeYj3S7dCK-33" value="클랜 참여" style="rounded=0;whiteSpace=wrap;html=1;fillColor=#1ba1e2;fontColor=#ffffff;strokeColor=#006EAF;fontSize=25;" parent="1" vertex="1">
          <mxGeometry x="240" y="650" width="120" height="60" as="geometry" />
        </mxCell>
        <mxCell id="boVoHQPEQ6CeYj3S7dCK-34" value="신청하기" style="rounded=0;whiteSpace=wrap;html=1;dashed=1;fontSize=25;" parent="1" vertex="1">
          <mxGeometry x="294" y="710" width="120" height="60" as="geometry" />
        </mxCell>
        <mxCell id="boVoHQPEQ6CeYj3S7dCK-38" value="클랜 일정 캘린더 공유" style="rounded=0;whiteSpace=wrap;html=1;fillColor=#1ba1e2;fontColor=#ffffff;strokeColor=#006EAF;fontSize=25;" parent="1" vertex="1">
          <mxGeometry x="240" y="790" width="120" height="60" as="geometry" />
        </mxCell>
        <mxCell id="boVoHQPEQ6CeYj3S7dCK-39" value="" style="endArrow=none;html=1;rounded=0;fontSize=25;" parent="1" edge="1">
          <mxGeometry width="50" height="50" relative="1" as="geometry">
            <mxPoint x="280" y="650" as="sourcePoint" />
            <mxPoint x="280" y="510" as="targetPoint" />
          </mxGeometry>
        </mxCell>
        <mxCell id="boVoHQPEQ6CeYj3S7dCK-40" value="" style="endArrow=none;html=1;rounded=0;fontSize=25;" parent="1" edge="1">
          <mxGeometry width="50" height="50" relative="1" as="geometry">
            <mxPoint x="279" y="790" as="sourcePoint" />
            <mxPoint x="279" y="710" as="targetPoint" />
          </mxGeometry>
        </mxCell>
        <mxCell id="boVoHQPEQ6CeYj3S7dCK-41" value="클랜 일정 캘린더 공유" style="rounded=0;whiteSpace=wrap;html=1;fillColor=#1ba1e2;fontColor=#ffffff;strokeColor=#006EAF;fontSize=25;" parent="1" vertex="1">
          <mxGeometry x="-160" y="440" width="120" height="60" as="geometry" />
        </mxCell>
        <mxCell id="boVoHQPEQ6CeYj3S7dCK-42" value="대회 전체 일정" style="rounded=0;whiteSpace=wrap;html=1;fillColor=#1ba1e2;fontColor=#ffffff;strokeColor=#006EAF;fontSize=25;" parent="1" vertex="1">
          <mxGeometry x="-160" y="520" width="120" height="60" as="geometry" />
        </mxCell>
        <mxCell id="boVoHQPEQ6CeYj3S7dCK-43" value="구독한 팀 일정" style="rounded=0;whiteSpace=wrap;html=1;fillColor=#1ba1e2;fontColor=#ffffff;strokeColor=#006EAF;fontSize=25;" parent="1" vertex="1">
          <mxGeometry x="-160" y="600" width="120" height="60" as="geometry" />
        </mxCell>
        <mxCell id="boVoHQPEQ6CeYj3S7dCK-152" value="마이페이지" style="rounded=0;whiteSpace=wrap;html=1;fillColor=#1ba1e2;fontColor=#ffffff;strokeColor=#006EAF;fontSize=25;" parent="1" vertex="1">
          <mxGeometry x="450" y="440" width="120" height="60" as="geometry" />
        </mxCell>
        <mxCell id="boVoHQPEQ6CeYj3S7dCK-210" value="회원정보&lt;br&gt;&amp;nbsp;수정" style="rounded=0;whiteSpace=wrap;html=1;dashed=1;fontSize=25;" parent="1" vertex="1">
          <mxGeometry x="520" y="520" width="120" height="60" as="geometry" />
        </mxCell>
        <mxCell id="boVoHQPEQ6CeYj3S7dCK-211" value="회원탈퇴" style="rounded=0;whiteSpace=wrap;html=1;dashed=1;fontSize=25;" parent="1" vertex="1">
          <mxGeometry x="520" y="580" width="120" height="60" as="geometry" />
        </mxCell>
        <mxCell id="boVoHQPEQ6CeYj3S7dCK-212" value="클랜 탈퇴" style="rounded=0;whiteSpace=wrap;html=1;dashed=1;fontSize=25;" parent="1" vertex="1">
          <mxGeometry x="520" y="640" width="120" height="60" as="geometry" />
        </mxCell>
        <mxCell id="opNIvI_rJIlRelTjN4q4-1" value="유저 일정" style="rounded=0;whiteSpace=wrap;html=1;fillColor=#1ba1e2;fontColor=#ffffff;strokeColor=#006EAF;fontSize=25;" parent="1" vertex="1">
          <mxGeometry x="-160" y="680" width="120" height="60" as="geometry" />
        </mxCell>
        <mxCell id="opNIvI_rJIlRelTjN4q4-2" value="메인화면" style="rounded=0;whiteSpace=wrap;html=1;fillColor=#0050ef;fontColor=#ffffff;strokeColor=#001DBC;fontSize=25;" parent="1" vertex="1">
          <mxGeometry x="-360" y="360" width="120" height="60" as="geometry" />
        </mxCell>
        <mxCell id="opNIvI_rJIlRelTjN4q4-5" value="" style="endArrow=none;html=1;rounded=0;fontSize=25;exitX=0.5;exitY=0;exitDx=0;exitDy=0;" parent="1" source="opNIvI_rJIlRelTjN4q4-2" edge="1">
          <mxGeometry width="50" height="50" relative="1" as="geometry">
            <mxPoint x="-300" y="340" as="sourcePoint" />
            <mxPoint x="-300.48" y="310" as="targetPoint" />
          </mxGeometry>
        </mxCell>
        <mxCell id="opNIvI_rJIlRelTjN4q4-6" value="회원가입" style="rounded=0;whiteSpace=wrap;html=1;fillColor=#1ba1e2;fontColor=#ffffff;strokeColor=#006EAF;fontSize=25;" parent="1" vertex="1">
          <mxGeometry x="-360" y="450" width="120" height="60" as="geometry" />
        </mxCell>
        <mxCell id="opNIvI_rJIlRelTjN4q4-7" value="로그인" style="rounded=0;whiteSpace=wrap;html=1;fillColor=#1ba1e2;fontColor=#ffffff;strokeColor=#006EAF;fontSize=25;" parent="1" vertex="1">
          <mxGeometry x="-360" y="530" width="120" height="60" as="geometry" />
        </mxCell>
        <mxCell id="opNIvI_rJIlRelTjN4q4-9" value="서비스&lt;div&gt;이용 방법&lt;/div&gt;" style="rounded=0;whiteSpace=wrap;html=1;dashed=1;fontSize=25;" parent="1" vertex="1">
          <mxGeometry x="520" y="700" width="120" height="60" as="geometry" />
        </mxCell>
        <mxCell id="opNIvI_rJIlRelTjN4q4-12" value="일정&lt;div&gt;공유하기&lt;/div&gt;" style="rounded=0;whiteSpace=wrap;html=1;dashed=1;fontSize=25;" parent="1" vertex="1">
          <mxGeometry x="293" y="850" width="120" height="60" as="geometry" />
        </mxCell>
        <mxCell id="opNIvI_rJIlRelTjN4q4-13" value="클랜&amp;nbsp;&lt;span style=&quot;background-color: initial;&quot;&gt;관리&lt;/span&gt;" style="rounded=0;whiteSpace=wrap;html=1;dashed=1;fontSize=25;" parent="1" vertex="1">
          <mxGeometry x="294" y="910" width="120" height="60" as="geometry" />
        </mxCell>
      </root>
    </mxGraphModel>
  </diagram>
</mxfile>
